<?xml version="1.0" encoding="UTF-8"?>
<!DOCTYPE svg PUBLIC "-//W3C//DTD SVG 1.1//EN" "http://www.w3.org/Graphics/SVG/1.1/DTD/svg11.dtd">
<!-- Creator: CorelDRAW X7 -->
<svg xmlns="http://www.w3.org/2000/svg" xml:space="preserve" width="0.4in" height="0.5in" version="1.1" style="shape-rendering:geometricPrecision; text-rendering:geometricPrecision; image-rendering:optimizeQuality; fill-rule:evenodd; clip-rule:evenodd"
viewBox="0 0 400 500"
 xmlns:xlink="http://www.w3.org/1999/xlink">
 <defs>
  <style type="text/css">
   <![CDATA[
    .fil0 {fill:#373435}
   ]]>
  </style>
 </defs>
 <g id="Capa_x0020_1">
  <metadata id="CorelCorpID_0Corel-Layer"/>
  <path class="fil0" d="M187 424c0,-10 2,-16 8,-22 3,-4 11,-10 19,-12 -1,1 -1,1 -1,1 -4,3 -10,6 -16,13 -3,4 -6,10 -8,15l-1 4c-1,2 0,1 -1,1zm145 -42c11,-3 19,-6 26,-11 6,-5 14,-12 16,-22 1,5 0,12 -2,16 -2,6 -4,9 -8,12 -4,2 -9,4 -14,5 -4,1 -15,2 -18,0zm-136 -73l1 0c0,1 1,1 1,1 7,3 5,15 -4,12 -7,-3 -10,-10 -10,-18 5,1 12,1 16,3 -2,1 -2,0 -4,2zm130 -10c21,7 43,22 39,45 -1,6 -6,15 -11,17 3,-7 5,-11 4,-20 -1,-13 -9,-23 -18,-31 -4,-4 -12,-9 -14,-11zm-136 -20c4,1 7,3 15,6 6,2 12,4 18,5 13,3 22,7 33,12 41,17 31,47 22,52 2,-6 3,-9 2,-18 -6,-44 -64,-39 -90,-57zm70 -35c10,-2 18,-1 26,3 7,3 11,8 13,16 -2,0 -7,-3 -10,-5l-19 -9c-2,-2 -8,-4 -10,-5zm-206 -119c12,-3 23,7 27,12 19,27 -16,35 -31,14 -6,-8 -7,-23 4,-26zm98 -6c14,-3 22,10 17,23 -8,20 -35,23 -42,14 -6,-8 4,-33 25,-37zm-19 -51c-8,-1 -15,-2 -23,-1 -9,0 -15,2 -22,4 -2,-2 -3,-3 -4,-5l-9 -8c-2,-1 -2,-3 -4,-4 -8,-7 -34,-31 -41,-23 -4,4 -6,19 -7,27 -2,20 -1,42 4,61 2,8 3,8 1,13 -1,5 -2,9 -3,14 -1,4 -4,8 -6,11 -1,1 -3,3 -5,4 -2,0 -5,0 -7,2 2,5 14,4 19,4 0,1 -5,3 -6,4 -3,1 -8,1 -9,1 1,4 8,4 11,4 4,0 8,0 11,2 -3,1 -11,0 -9,4 1,1 5,0 7,0 11,3 22,14 44,18 -2,22 -8,50 5,69 2,3 10,13 15,10 0,-2 -1,-2 -3,-3 -1,-1 -2,-3 -3,-4 -7,-9 -8,-22 -6,-34l5 14c2,4 4,8 6,12 7,14 19,34 32,43 3,3 6,5 11,7 3,1 5,1 8,2 3,0 6,0 7,-3 -1,-1 -8,-3 -11,-5 -3,-2 -6,-5 -8,-8 -4,-4 -10,-15 -10,-22 3,3 5,7 7,9 8,9 22,17 35,18 4,13 12,26 27,27 9,1 17,-3 19,-9 3,-5 1,-11 -3,-14l-5 -3c14,0 32,2 44,6 31,11 33,41 5,56 -21,10 -52,12 -66,33 -8,12 -9,27 -2,39 6,11 15,17 27,24 8,4 18,8 27,10 2,1 8,2 10,3 -5,2 -12,7 -3,9 6,2 13,2 19,3 8,0 33,0 39,-3 1,-9 -41,-37 -51,-34 -2,4 1,7 2,10 -15,-3 -32,-13 -35,-26 -4,-18 17,-26 32,-29 18,-4 40,-2 59,-3 18,-1 36,-3 51,-10 38,-17 41,-55 15,-82 -16,-17 -38,-29 -60,-40 -3,-2 -7,-3 -10,-5l7 -2c0,-1 -1,-1 -2,-1 -8,-5 0,-17 -18,-31 -13,-10 -24,-10 -39,-14 2,-1 11,0 14,0 14,-1 27,-3 41,1 7,3 14,8 17,14 1,4 1,9 -1,13 -4,6 -8,2 -10,3 -3,5 12,11 18,2 9,-16 -8,-42 -40,-47 -29,-5 -62,1 -84,-23 -2,-2 -5,-6 -7,-9 5,3 16,15 25,13l-6 -5c-3,-1 -4,-3 -6,-5l-5 -5c-1,-1 -2,-1 -3,-2l-3 -3c14,-15 27,-11 26,-17 -2,-1 -6,0 -9,0 -3,-1 -5,-2 -8,-2 1,-1 10,-4 14,-6 3,-2 9,-6 8,-11 -2,-1 -6,3 -13,3 -2,0 -4,-1 -6,-2 -7,-4 -15,-18 -15,-20 1,-2 1,-5 2,-7 2,-22 1,-42 -5,-62 -1,-6 -6,-21 -11,-23 -8,-2 -25,16 -30,21l-6 7c-1,1 -1,1 -2,2 -4,4 -13,17 -16,19zm101 102c-9,5 1,18 9,16 10,-4 0,-20 -9,-16zm124 97c-9,4 0,18 8,15 9,-3 1,-18 -8,-15zm-171 157c1,0 0,1 1,-1l1 -4c2,-5 5,-11 8,-15 6,-7 12,-10 16,-13 0,0 0,0 1,-1 -8,2 -16,8 -19,12 -6,6 -8,12 -8,22zm66 -99c-2,1 -2,0 -3,3 0,4 5,7 8,6 6,-2 0,-11 -5,-9zm18 88c-6,3 -2,9 4,7 6,-2 3,-10 -4,-7zm77 -5c-5,2 -3,9 4,6 4,-2 2,-8 -4,-6zm-49 -214c-4,2 2,7 5,5 4,-2 -2,-8 -5,-5zm-72 133c-2,1 -4,2 -3,4 1,2 3,3 5,2 4,-1 2,-8 -2,-6zm-126 -33c-1,4 1,6 5,5 1,-4 -2,-7 -5,-5zm150 120c-4,1 -2,6 1,4 4,-1 1,-5 -1,-4zm122 -115c2,0 4,0 4,-2 -1,-2 -2,-3 -4,-2 -2,1 -1,2 0,4zm-106 -106c-1,1 -2,1 0,3 0,1 2,1 3,0 2,-1 -1,-5 -3,-3zm74 75c0,-2 0,-2 -1,-3 -5,0 -3,7 1,3zm-91 -76c1,2 0,1 1,2 4,0 3,-2 3,-4 -3,0 -3,0 -4,2z"/>
 </g>
</svg>
